<svg width="148" height="33" viewBox="0 0 148 33" fill="none" xmlns="http://www.w3.org/2000/svg">
<path d="M46.69 18.4735H49.862L51.7407 20.9845L53.0813 22.6196L56.3005 26.8824H52.9019L50.7117 24.0211L49.7771 22.6585L46.69 18.4735ZM56.7631 15.2034C56.7631 17.351 56.3729 19.1905 55.5925 20.7217C54.8184 22.2465 53.761 23.4144 52.4204 24.2254C51.0862 25.0365 49.5725 25.442 47.8795 25.442C46.1865 25.442 44.6697 25.0365 43.3291 24.2254C41.9948 23.4079 40.9374 22.2368 40.157 20.712C39.3829 19.1808 38.9958 17.3446 38.9958 15.2034C38.9958 13.0558 39.3829 11.2196 40.157 9.69479C40.9374 8.16354 41.9948 6.99239 43.3291 6.18135C44.6697 5.37031 46.1865 4.96478 47.8795 4.96478C49.5725 4.96478 51.0862 5.37031 52.4204 6.18135C53.761 6.99239 54.8184 8.16354 55.5925 9.69479C56.3729 11.2196 56.7631 13.0558 56.7631 15.2034ZM53.2418 15.2034C53.2418 13.6916 53.012 12.4167 52.5526 11.3785C52.0994 10.3339 51.4701 9.54556 50.6645 9.01351C49.8589 8.47498 48.9305 8.20571 47.8795 8.20571C46.8284 8.20571 45.9001 8.47498 45.0945 9.01351C44.2889 9.54556 43.6564 10.3339 43.1969 11.3785C42.7438 12.4167 42.5172 13.6916 42.5172 15.2034C42.5172 16.7152 42.7438 17.9934 43.1969 19.038C43.6564 20.0761 44.2889 20.8645 45.0945 21.403C45.9001 21.9351 46.8284 22.2011 47.8795 22.2011C48.9305 22.2011 49.8589 21.9351 50.6645 21.403C51.4701 20.8645 52.0994 20.0761 52.5526 19.038C53.012 17.9934 53.2418 16.7152 53.2418 15.2034Z" fill="white"/>
<path d="M69.1918 18.8823V10.2203H72.6093V25.1695H69.2956V22.5125H69.1446C68.8173 23.3495 68.2792 24.034 67.5302 24.5661C66.7875 25.0981 65.8718 25.3641 64.783 25.3641C63.8326 25.3641 62.9924 25.1468 62.2623 24.7121C61.5385 24.2709 60.9721 23.6318 60.563 22.7948C60.1539 21.9513 59.9494 20.9326 59.9494 19.7388V10.2203H63.3669V19.1937C63.3669 20.141 63.6186 20.8937 64.1221 21.4517C64.6256 22.0097 65.2865 22.2887 66.1047 22.2887C66.6082 22.2887 67.0959 22.1622 67.568 21.9091C68.04 21.6561 68.4271 21.2797 68.7292 20.7801C69.0376 20.274 69.1918 19.6414 69.1918 18.8823Z" fill="white"/>
<path d="M76.1236 25.1695V10.2203H79.5411V25.1695H76.1236ZM77.8418 8.09866C77.3005 8.09866 76.8348 7.91374 76.4445 7.5439C76.0543 7.16758 75.8592 6.71664 75.8592 6.19108C75.8592 5.65904 76.0543 5.2081 76.4445 4.83826C76.8348 4.46194 77.3005 4.27378 77.8418 4.27378C78.3893 4.27378 78.8551 4.46194 79.239 4.83826C79.6292 5.2081 79.8243 5.65904 79.8243 6.19108C79.8243 6.71664 79.6292 7.16758 79.239 7.5439C78.8551 7.91374 78.3893 8.09866 77.8418 8.09866Z" fill="white"/>
<path d="M89.3806 25.4615C87.933 25.4615 86.69 25.1338 85.6515 24.4785C84.6194 23.8232 83.8232 22.918 83.2631 21.7631C82.7092 20.6017 82.4323 19.2651 82.4323 17.7533C82.4323 16.235 82.7155 14.8952 83.2819 13.7338C83.8484 12.5659 84.6477 11.6575 85.6799 11.0087C86.7183 10.3534 87.9456 10.0257 89.3617 10.0257C90.5387 10.0257 91.5803 10.2495 92.4866 10.6972C93.3992 11.1384 94.1261 11.7646 94.6674 12.5756C95.2086 13.3802 95.517 14.321 95.5926 15.398H92.3261C92.1939 14.6778 91.8792 14.0777 91.382 13.5975C90.8911 13.1109 90.2334 12.8676 89.4089 12.8676C88.7103 12.8676 88.0967 13.0622 87.568 13.4515C87.0393 13.8344 86.6271 14.3859 86.3313 15.1061C86.0418 15.8263 85.897 16.6892 85.897 17.6949C85.897 18.7136 86.0418 19.5895 86.3313 20.3227C86.6208 21.0494 87.0267 21.6106 87.5491 22.0064C88.0778 22.3957 88.6977 22.5904 89.4089 22.5904C89.9124 22.5904 90.3624 22.4931 90.7589 22.2984C91.1617 22.0973 91.4985 21.8085 91.7691 21.4322C92.0397 21.0559 92.2254 20.5985 92.3261 20.0599H95.5926C95.5107 21.1175 95.2086 22.0551 94.6862 22.8726C94.1639 23.6837 93.4527 24.3195 92.5527 24.7802C91.6527 25.2344 90.5953 25.4615 89.3806 25.4615Z" fill="white"/>
<path d="M101.514 20.4784L101.505 16.2253H102.052L107.264 10.2203H111.257L104.847 17.5781H104.139L101.514 20.4784ZM98.3988 25.1695V5.23729H101.816V25.1695H98.3988ZM107.5 25.1695L102.779 18.3665L105.083 15.8847L111.587 25.1695H107.5Z" fill="white"/>
<path d="M120.237 25.1695H113.686V5.23729H120.37C122.289 5.23729 123.938 5.63633 125.316 6.4344C126.701 7.22597 127.765 8.36468 128.507 9.85051C129.25 11.3363 129.621 13.1142 129.621 15.1839C129.621 17.2602 129.247 19.0445 128.498 20.5368C127.755 22.0291 126.682 23.1743 125.279 23.9724C123.881 24.7705 122.201 25.1695 120.237 25.1695ZM117.188 22.0454H120.067C121.414 22.0454 122.538 21.7923 123.438 21.2862C124.338 20.7736 125.014 20.0113 125.468 18.9991C125.921 17.9804 126.147 16.7087 126.147 15.1839C126.147 13.6592 125.921 12.3939 125.468 11.3882C125.014 10.3761 124.344 9.62017 123.457 9.12057C122.576 8.61448 121.48 8.36143 120.171 8.36143H117.188V22.0454Z" fill="white"/>
<path d="M132.798 25.1695V10.2203H136.216V25.1695H132.798ZM134.516 8.09866C133.975 8.09866 133.509 7.91374 133.119 7.5439C132.729 7.16758 132.534 6.71664 132.534 6.19108C132.534 5.65904 132.729 5.2081 133.119 4.83826C133.509 4.46194 133.975 4.27378 134.516 4.27378C135.064 4.27378 135.53 4.46194 135.914 4.83826C136.304 5.2081 136.499 5.65904 136.499 6.19108C136.499 6.71664 136.304 7.16758 135.914 7.5439C135.53 7.91374 135.064 8.09866 134.516 8.09866Z" fill="white"/>
<path d="M139.73 25.1695V10.2203H143.044V12.7119H143.195C143.459 11.8489 143.912 11.1839 144.554 10.7167C145.202 10.2431 145.942 10.0062 146.773 10.0062C146.962 10.0062 147.172 10.016 147.405 10.0354C147.644 10.0484 147.843 10.0711 148 10.1036V13.3445C147.855 13.2926 147.626 13.2472 147.311 13.2082C147.002 13.1628 146.703 13.1401 146.414 13.1401C145.791 13.1401 145.231 13.2796 144.734 13.5586C144.243 13.8311 143.856 14.2107 143.572 14.6973C143.289 15.1839 143.147 15.7452 143.147 16.381V25.1695H139.73Z" fill="white"/>
<path fill-rule="evenodd" clip-rule="evenodd" d="M30.3256 20.0444H19.7357V30.8H2.88815C1.29307 30.8 0 29.4867 0 27.8667V2.93333C0 1.3133 1.29307 0 2.88815 0H27.4375C29.0325 0 30.3256 1.3133 30.3256 2.93333V20.0444ZM10.5899 20.0444V10.7556H19.7357V20.0444H10.5899Z" fill="white"/>
<path d="M21.4205 22.2444H32.0104V33H21.4205V22.2444Z" fill="white"/>
</svg>
