<svg width="99" height="22" viewBox="0 0 99 22" fill="none" xmlns="http://www.w3.org/2000/svg">
<path fill-rule="evenodd" clip-rule="evenodd" d="M19.4652 13.363H12.6678V20.5333H1.85383C0.829987 20.5333 0 19.6578 0 18.5778V1.95556C0 0.875532 0.829987 0 1.85383 0H17.6114C18.6352 0 19.4652 0.875532 19.4652 1.95556V13.363ZM6.79737 13.363V7.17037H12.6678V13.363H6.79737Z" fill="#020202"/>
<path d="M13.7492 14.8296H20.5466V22H13.7492V14.8296Z" fill="#525ACE"/>
<path d="M31.0023 12.7727H32.8721L33.9796 14.3101L34.7698 15.3111L36.6675 17.921H34.6641L33.373 16.1692L32.8221 15.3349L31.0023 12.7727ZM36.9402 10.7706C36.9402 12.0855 36.7102 13.2117 36.2501 14.1492C35.7938 15.0827 35.1705 15.7977 34.3803 16.2943C33.5937 16.7909 32.7015 17.0391 31.7035 17.0391C30.7055 17.0391 29.8114 16.7909 29.0211 16.2943C28.2346 15.7938 27.6113 15.0767 27.1513 14.1432C26.695 13.2057 26.4668 12.0815 26.4668 10.7706C26.4668 9.45571 26.695 8.3315 27.1513 7.39797C27.6113 6.46047 28.2346 5.74345 29.0211 5.24689C29.8114 4.75033 30.7055 4.50205 31.7035 4.50205C32.7015 4.50205 33.5937 4.75033 34.3803 5.24689C35.1705 5.74345 35.7938 6.46047 36.2501 7.39797C36.7102 8.3315 36.9402 9.45571 36.9402 10.7706ZM34.8644 10.7706C34.8644 9.84501 34.729 9.06442 34.4582 8.42883C34.1911 7.78926 33.82 7.30661 33.3452 6.98087C32.8703 6.65115 32.3231 6.4863 31.7035 6.4863C31.0839 6.4863 30.5367 6.65115 30.0618 6.98087C29.5869 7.30661 29.2141 7.78926 28.9432 8.42883C28.6761 9.06442 28.5425 9.84501 28.5425 10.7706C28.5425 11.6962 28.6761 12.4787 28.9432 13.1183C29.2141 13.7539 29.5869 14.2366 30.0618 14.5663C30.5367 14.892 31.0839 15.0549 31.7035 15.0549C32.3231 15.0549 32.8703 14.892 33.3452 14.5663C33.82 14.2366 34.1911 13.7539 34.4582 13.1183C34.729 12.4787 34.8644 11.6962 34.8644 10.7706Z" fill="#020202"/>
<path d="M44.2665 13.023V7.71974H46.2811V16.8723H44.3278V15.2456H44.2387C44.0458 15.758 43.7286 16.1771 43.2871 16.5028C42.8493 16.8286 42.3095 16.9915 41.6677 16.9915C41.1075 16.9915 40.6122 16.8584 40.1818 16.5922C39.7552 16.3221 39.4213 15.9308 39.1801 15.4184C38.9389 14.9019 38.8184 14.2783 38.8184 13.5473V7.71974H40.8329V13.2137C40.8329 13.7936 40.9813 14.2544 41.2781 14.5961C41.5749 14.9377 41.9645 15.1085 42.4468 15.1085C42.7436 15.1085 43.0311 15.0311 43.3093 14.8761C43.5876 14.7212 43.8158 14.4908 43.9939 14.1849C44.1756 13.8751 44.2665 13.4878 44.2665 13.023Z" fill="#020202"/>
<path d="M48.3527 16.8723V7.71974H50.3672V16.8723H48.3527ZM49.3655 6.42075C49.0464 6.42075 48.7719 6.30753 48.5419 6.0811C48.3118 5.8507 48.1968 5.57462 48.1968 5.25285C48.1968 4.92711 48.3118 4.65102 48.5419 4.42459C48.7719 4.19419 49.0464 4.07899 49.3655 4.07899C49.6883 4.07899 49.9628 4.19419 50.1891 4.42459C50.4191 4.65102 50.5341 4.92711 50.5341 5.25285C50.5341 5.57462 50.4191 5.8507 50.1891 6.0811C49.9628 6.30753 49.6883 6.42075 49.3655 6.42075Z" fill="#020202"/>
<path d="M56.1673 17.051C55.314 17.051 54.5813 16.8504 53.9692 16.4492C53.3607 16.048 52.8914 15.4938 52.5612 14.7867C52.2347 14.0757 52.0715 13.2573 52.0715 12.3318C52.0715 11.4022 52.2384 10.5819 52.5723 9.87083C52.9062 9.15579 53.3774 8.59964 53.9859 8.2024C54.598 7.80118 55.3215 7.60057 56.1562 7.60057C56.85 7.60057 57.464 7.73762 57.9982 8.01172C58.5362 8.28185 58.9647 8.66519 59.2838 9.16175C59.6028 9.65433 59.7846 10.2303 59.8291 10.8898H57.9036C57.8257 10.4488 57.6402 10.0814 57.3471 9.78741C57.0578 9.48947 56.6701 9.34051 56.184 9.34051C55.7722 9.34051 55.4105 9.45968 55.0989 9.69803C54.7872 9.9324 54.5442 10.2701 54.3699 10.711C54.1992 11.1519 54.1139 11.6803 54.1139 12.296C54.1139 12.9197 54.1992 13.456 54.3699 13.9049C54.5405 14.3498 54.7798 14.6934 55.0877 14.9357C55.3994 15.1741 55.7648 15.2932 56.184 15.2932C56.4808 15.2932 56.7461 15.2336 56.9798 15.1145C57.2173 14.9913 57.4158 14.8146 57.5753 14.5841C57.7348 14.3537 57.8443 14.0737 57.9036 13.744H59.8291C59.7809 14.3915 59.6028 14.9655 59.2949 15.466C58.987 15.9626 58.5677 16.3519 58.0372 16.6339C57.5067 16.912 56.8834 17.051 56.1673 17.051Z" fill="#020202"/>
<path d="M63.3198 14.0002L63.3142 11.3963H63.637L66.7089 7.71974H69.0629L65.2843 12.2245H64.8669L63.3198 14.0002ZM61.4833 16.8723V4.6689H63.4979V16.8723H61.4833ZM66.848 16.8723L64.0655 12.7072L65.4234 11.1877L69.2577 16.8723H66.848Z" fill="#020202"/>
<path d="M74.3567 16.8723H70.4945V4.6689H74.4346C75.5661 4.6689 76.5381 4.9132 77.3506 5.40181C78.1668 5.88645 78.7938 6.58362 79.2316 7.49331C79.6694 8.40301 79.8883 9.49146 79.8883 10.7587C79.8883 12.0299 79.6675 13.1223 79.2261 14.036C78.7883 14.9496 78.1557 15.6508 77.3284 16.1394C76.5048 16.628 75.5142 16.8723 74.3567 16.8723ZM72.5591 14.9595H74.2565C75.0504 14.9595 75.7127 14.8046 76.2432 14.4948C76.7737 14.1809 77.1726 13.7142 77.4397 13.0945C77.7068 12.4708 77.8404 11.6922 77.8404 10.7587C77.8404 9.82515 77.7068 9.05052 77.4397 8.43479C77.1726 7.81508 76.7774 7.35229 76.2543 7.04641C75.7349 6.73656 75.0894 6.58163 74.3177 6.58163H72.5591V14.9595Z" fill="#020202"/>
<path d="M81.7609 16.8723V7.71974H83.7755V16.8723H81.7609ZM82.7738 6.42075C82.4547 6.42075 82.1802 6.30753 81.9501 6.0811C81.7201 5.8507 81.6051 5.57462 81.6051 5.25285C81.6051 4.92711 81.7201 4.65102 81.9501 4.42459C82.1802 4.19419 82.4547 4.07899 82.7738 4.07899C83.0965 4.07899 83.3711 4.19419 83.5974 4.42459C83.8274 4.65102 83.9424 4.92711 83.9424 5.25285C83.9424 5.57462 83.8274 5.8507 83.5974 6.0811C83.3711 6.30753 83.0965 6.42075 82.7738 6.42075Z" fill="#020202"/>
<path d="M85.847 16.8723V7.71974H87.8004V9.24517H87.8894C88.0452 8.71683 88.3124 8.30965 88.6908 8.02364C89.0729 7.73365 89.5088 7.58865 89.9986 7.58865C90.1099 7.58865 90.2342 7.59461 90.3714 7.60653C90.5124 7.61447 90.6293 7.62838 90.722 7.64824V9.63248C90.6367 9.6007 90.5013 9.57289 90.3158 9.54906C90.134 9.52125 89.9578 9.50735 89.7871 9.50735C89.4198 9.50735 89.0896 9.59276 88.7965 9.76357C88.5071 9.93042 88.279 10.1628 88.112 10.4607C87.9451 10.7587 87.8616 11.1023 87.8616 11.4916V16.8723H85.847Z" fill="#020202"/>
<path d="M98.8164 10.139L96.9799 10.3535C96.928 10.1549 96.8371 9.96815 96.7072 9.79337C96.5811 9.61858 96.4104 9.47756 96.1952 9.3703C95.98 9.26304 95.7166 9.20941 95.405 9.20941C94.9858 9.20941 94.6333 9.30674 94.3476 9.50139C94.0657 9.69604 93.9265 9.94829 93.9302 10.2581C93.9265 10.5243 94.0174 10.7408 94.2029 10.9076C94.3922 11.0745 94.7038 11.2115 95.1379 11.3188L96.5959 11.6525C97.4047 11.8392 98.0057 12.1351 98.399 12.5403C98.7959 12.9455 98.9963 13.4758 99 14.1313C98.9963 14.7073 98.8386 15.2158 98.527 15.6567C98.219 16.0937 97.7905 16.4353 97.2414 16.6816C96.6924 16.9279 96.0617 17.051 95.3493 17.051C94.3031 17.051 93.4609 16.8167 92.8228 16.3479C92.1847 15.8752 91.8044 15.2178 91.682 14.3756L93.6464 14.173C93.7355 14.5861 93.9247 14.898 94.2141 15.1085C94.5034 15.3191 94.88 15.4243 95.3438 15.4243C95.8224 15.4243 96.2063 15.3191 96.4957 15.1085C96.7888 14.898 96.9354 14.6378 96.9354 14.3279C96.9354 14.0657 96.8408 13.8492 96.6516 13.6784C96.466 13.5076 96.1767 13.3765 95.7834 13.2852L94.3254 12.9574C93.5055 12.7747 92.8989 12.4668 92.5056 12.0338C92.1123 11.5969 91.9176 11.0447 91.9213 10.3773C91.9176 9.81323 92.0604 9.32462 92.3498 8.91148C92.6429 8.49437 93.0491 8.1726 93.5685 7.94617C94.0916 7.71577 94.6945 7.60057 95.3772 7.60057C96.3789 7.60057 97.1672 7.82899 97.7423 8.28582C98.3211 8.74265 98.6791 9.36037 98.8164 10.139Z" fill="#020202"/>
</svg>
